<svg xmlns="http://www.w3.org/2000/svg" viewBox="0 0 86.02 86.02"><title>angles-bottom-right</title><path d="M0,85a1,1,0,0,0,1,1H85a1,1,0,0,0,1-1V1A1,1,0,0,0,84.31.3,1,1,0,0,0,84,1V77.66L64.16,3.53h0a1,1,0,0,0-.46-.62,1,1,0,0,0-1.37.37,1,1,0,0,0-.09.77L82,77.85,43.8,11.68h0a1,1,0,0,0-.61-.48,1,1,0,0,0-.77.1,1,1,0,0,0-.47.61,1,1,0,0,0,.11.77L80.27,78.85l-54-54a1,1,0,0,0-.71-.31,1,1,0,0,0-1,1,1,1,0,0,0,.31.71l54,54L12.69,42.06a1,1,0,0,0-.77-.11,1,1,0,0,0-.23,1.84L77.86,82,4.05,62.22h0a1,1,0,0,0-.76.09,1,1,0,0,0-.47.61,1,1,0,0,0,.1.77,1,1,0,0,0,.62.46L77.66,84H1a1,1,0,0,0-.72.29A1,1,0,0,0,0,85Z"/></svg>