<svg xmlns="http://www.w3.org/2000/svg" viewBox="0 0 86.02 86.02"><title>angles-bottom-left</title><path d="M1,0A1,1,0,0,0,0,1V85a1,1,0,0,0,1,1H85a1,1,0,0,0,.72-1.71A1,1,0,0,0,85,84H8.36L82.49,64.16h0a1,1,0,0,0,.62-.46,1,1,0,0,0-.37-1.37,1,1,0,0,0-.77-.09L8.17,82,74.34,43.8h0a1,1,0,0,0,.48-.61,1,1,0,0,0-.1-.77A1,1,0,0,0,74.1,42a1,1,0,0,0-.77.11L7.16,80.27l54-54a1,1,0,0,0,.31-.71,1,1,0,0,0-1-1,1,1,0,0,0-.71.31l-54,54L44,12.69a1,1,0,0,0,.11-.77,1,1,0,0,0-1.84-.23L4,77.86,23.8,4.05h0a1,1,0,0,0-.09-.76,1,1,0,0,0-.61-.47,1,1,0,0,0-.77.1,1,1,0,0,0-.46.62L2,77.66V1H2A1,1,0,0,0,1.71.29,1,1,0,0,0,1,0Z"/></svg>