<svg xmlns="http://www.w3.org/2000/svg" viewBox="0 0 86.02 86.02"><title>angles-top-right</title><path d="M85,86a1,1,0,0,0,1-1V1a1,1,0,0,0-1-1H1A1,1,0,0,0,.3,1.71,1,1,0,0,0,1,2H77.66L3.53,21.86h0a1,1,0,0,0-.62.46,1,1,0,0,0,.37,1.38A1,1,0,0,0,4,23.8L77.85,4,11.68,42.23h0a1,1,0,0,0-.48.61,1,1,0,0,0,.1.77,1,1,0,0,0,.61.47,1,1,0,0,0,.77-.11L78.85,5.75l-54,54a1,1,0,0,0-.31.71,1,1,0,0,0,1,1,1,1,0,0,0,.71-.31l54-54L42.06,73.34a1,1,0,0,0-.11.77,1,1,0,0,0,1.84.23L82,8.16,62.22,82h0a1,1,0,0,0,.09.76,1,1,0,0,0,.61.47,1,1,0,0,0,.77-.1,1,1,0,0,0,.46-.62L84,8.36V85h0a1,1,0,0,0,.29.72A1,1,0,0,0,85,86Z"/></svg>